<svg width="138" height="56" viewBox="0 0 138 56" fill="none" xmlns="http://www.w3.org/2000/svg">
<path d="M89.9141 35.9618C85.4932 31.5483 85.4932 24.3925 89.9141 19.9789L101.921 7.99179C106.341 3.57826 113.509 3.57826 117.929 7.99179L129.935 19.9789C134.356 24.3925 134.356 31.5483 129.935 35.9618L117.929 47.9488C113.509 52.3625 106.341 52.3625 101.921 47.9488L89.9141 35.9618Z" fill="#2D76E8"/>
<path d="M2.64803 32.9035V24.4591H0.399963V21.7924H2.64803V20.348C2.64803 19.0294 3.04867 17.9924 3.84996 17.2368C4.65124 16.4813 5.66772 16.1035 6.8993 16.1035C7.65608 16.1035 8.30156 16.185 8.83575 16.348V19.0368C8.47962 18.9035 8.06416 18.8368 7.5893 18.8368C6.92156 18.8368 6.43932 18.985 6.14253 19.2813C5.84578 19.5628 5.69737 20.0443 5.69737 20.7257V21.7924H8.83575V24.4591H5.69737V32.9035H2.64803Z" fill="white"/>
<path d="M10.6411 32.9026V21.7915H13.6905V23.5693C13.8834 23.0212 14.2321 22.5693 14.7366 22.2138C15.256 21.8434 15.8272 21.6582 16.4505 21.6582C16.8363 21.6582 17.1775 21.7026 17.4743 21.7915V24.8804C16.9847 24.7174 16.5247 24.636 16.0943 24.636C15.3673 24.636 14.7811 24.9026 14.336 25.436C13.9056 25.9545 13.6905 26.673 13.6905 27.5915V32.9026H10.6411Z" fill="white"/>
<path d="M28.2907 31.4802C27.1481 32.5913 25.7681 33.1469 24.1507 33.1469C22.5332 33.1469 21.1532 32.5913 20.0107 31.4802C18.8681 30.3543 18.2968 28.9765 18.2968 27.3469C18.2968 25.7321 18.8681 24.3617 20.0107 23.2358C21.1532 22.1099 22.5332 21.5469 24.1507 21.5469C25.7681 21.5469 27.1481 22.1099 28.2907 23.2358C29.4332 24.3617 30.0046 25.7321 30.0046 27.3469C30.0046 28.9765 29.4332 30.3543 28.2907 31.4802ZM24.1507 30.3024C24.9371 30.3024 25.59 30.0283 26.1094 29.4802C26.6436 28.9172 26.9107 28.2061 26.9107 27.3469C26.9107 26.4876 26.6436 25.7839 26.1094 25.2358C25.59 24.6728 24.9371 24.3913 24.1507 24.3913C23.3494 24.3913 22.6817 24.6728 22.1475 25.2358C21.6281 25.7839 21.3684 26.4876 21.3684 27.3469C21.3684 28.2061 21.6281 28.9172 22.1475 29.4802C22.6817 30.0283 23.3494 30.3024 24.1507 30.3024Z" fill="white"/>
<path d="M32.2036 32.9024V21.7913H35.253V23.058C35.9355 22.0506 36.9965 21.5469 38.4359 21.5469C39.7714 21.5469 40.8175 21.9913 41.5743 22.8802C42.3459 23.7543 42.7317 24.9247 42.7317 26.3913V32.9024H39.6823V26.9024C39.6823 26.0876 39.5117 25.458 39.1704 25.0135C38.8291 24.5543 38.3468 24.3247 37.7236 24.3247C36.9817 24.3247 36.3807 24.5913 35.9207 25.1247C35.4755 25.658 35.253 26.4432 35.253 27.4802V32.9024H32.2036Z" fill="white"/>
<path d="M50.784 33.0365C49.5375 33.0365 48.5137 32.6957 47.7124 32.0142C46.9258 31.3179 46.5327 30.3179 46.5327 29.0142V24.4587H44.2847V21.792H46.5327V18.7031H49.582V21.792H52.7204V24.4587H49.582V28.4142C49.582 29.0957 49.7303 29.5846 50.0272 29.8809C50.3241 30.1624 50.8062 30.3031 51.474 30.3031C51.949 30.3031 52.3643 30.2365 52.7204 30.1031V32.792C52.1862 32.955 51.5408 33.0365 50.784 33.0365Z" fill="white"/>
<path d="M59.8635 33.1469C58.1572 33.1469 56.755 32.5987 55.6568 31.5024C54.5737 30.4061 54.0319 29.0135 54.0319 27.3247C54.0319 25.6654 54.5812 24.2876 55.679 23.1913C56.7919 22.095 58.1942 21.5469 59.8858 21.5469C61.5925 21.5469 63.0095 22.1321 64.1371 23.3024C65.2651 24.458 65.7842 26.0432 65.6951 28.058H57.0145C57.0737 28.7543 57.3635 29.3395 57.8826 29.8135C58.4021 30.2728 59.1143 30.5024 60.0193 30.5024C60.5687 30.5024 61.0508 30.3987 61.4661 30.1913C61.8966 29.9691 62.2006 29.6654 62.3787 29.2802H65.5616C65.2353 30.421 64.5529 31.3543 63.5139 32.0802C62.4753 32.7913 61.2587 33.1469 59.8635 33.1469ZM59.7968 24.0135C59.0996 24.0135 58.5134 24.1987 58.0384 24.5691C57.5785 24.9247 57.274 25.421 57.1258 26.058H62.3564C62.1935 25.3617 61.8668 24.8506 61.3771 24.5247C60.9025 24.1839 60.3755 24.0135 59.7968 24.0135Z" fill="white"/>
<path d="M67.9165 32.9024V21.7913H70.9659V23.058C71.6483 22.0506 72.7096 21.5469 74.1488 21.5469C75.4842 21.5469 76.5304 21.9913 77.2872 22.8802C78.0586 23.7543 78.4446 24.9247 78.4446 26.3913V32.9024H75.3952V26.9024C75.3952 26.0876 75.2247 25.458 74.8833 25.0135C74.5418 24.5543 74.0597 24.3247 73.4365 24.3247C72.6944 24.3247 72.0935 24.5913 71.6336 25.1247C71.1884 25.658 70.9659 26.4432 70.9659 27.4802V32.9024H67.9165Z" fill="white"/>
<path d="M85.7595 33.1474C84.2904 33.1474 83.0511 32.5771 82.0424 31.4363C81.0332 30.2956 80.5288 28.9326 80.5288 27.3474C80.5288 25.7622 81.0332 24.3993 82.0424 23.2585C83.0511 22.1178 84.2904 21.5474 85.7595 21.5474C86.4717 21.5474 87.1096 21.6956 87.6736 21.9919C88.2372 22.2882 88.6677 22.6363 88.9646 23.0363V16.2363H92.014V32.903H88.9646V31.6585C88.6677 32.0585 88.2372 32.4067 87.6736 32.703C87.1096 32.9993 86.4717 33.1474 85.7595 33.1474ZM84.3572 29.5252C84.8763 30.0882 85.5591 30.3697 86.4049 30.3697C87.2507 30.3697 87.9256 30.0882 88.4304 29.5252C88.9495 28.9622 89.2095 28.2363 89.2095 27.3474C89.2095 26.4585 88.9495 25.7326 88.4304 25.1697C87.9256 24.6067 87.2507 24.3252 86.4049 24.3252C85.5591 24.3252 84.8763 24.6067 84.3572 25.1697C83.8524 25.7326 83.6004 26.4585 83.6004 27.3474C83.6004 28.2363 83.8524 28.9622 84.3572 29.5252Z" fill="white"/>
<path d="M98.2057 21.7924V33.748C98.2057 35.0516 97.8126 36.0443 97.026 36.7257C96.2394 37.422 95.2529 37.7702 94.0657 37.7702C93.5315 37.7702 93.1161 37.7405 92.8192 37.6813V35.0813C93.0271 35.1109 93.2199 35.1257 93.3979 35.1257C94.57 35.1257 95.1563 34.5035 95.1563 33.2591V21.7924H98.2057ZM96.6699 19.9702C96.1504 19.9702 95.6981 19.785 95.3121 19.4146C94.9262 19.0294 94.7334 18.5702 94.7334 18.0368C94.7334 17.5035 94.9262 17.0516 95.3121 16.6813C95.6981 16.2961 96.1504 16.1035 96.6699 16.1035C97.2187 16.1035 97.679 16.2961 98.0499 16.6813C98.4358 17.0516 98.6286 17.5035 98.6286 18.0368C98.6286 18.5702 98.4358 19.0294 98.0499 19.4146C97.679 19.785 97.2187 19.9702 96.6699 19.9702Z" fill="white"/>
<path d="M110.411 31.4802C109.268 32.5913 107.888 33.1469 106.271 33.1469C104.653 33.1469 103.273 32.5913 102.131 31.4802C100.988 30.3543 100.417 28.9765 100.417 27.3469C100.417 25.7321 100.988 24.3617 102.131 23.2358C103.273 22.1099 104.653 21.5469 106.271 21.5469C107.888 21.5469 109.268 22.1099 110.411 23.2358C111.553 24.3617 112.125 25.7321 112.125 27.3469C112.125 28.9765 111.553 30.3543 110.411 31.4802ZM106.271 30.3024C107.057 30.3024 107.71 30.0283 108.229 29.4802C108.764 28.9172 109.031 28.2061 109.031 27.3469C109.031 26.4876 108.764 25.7839 108.229 25.2358C107.71 24.6728 107.057 24.3913 106.271 24.3913C105.469 24.3913 104.802 24.6728 104.267 25.2358C103.748 25.7839 103.488 26.4876 103.488 27.3469C103.488 28.2061 103.748 28.9172 104.267 29.4802C104.802 30.0283 105.469 30.3024 106.271 30.3024Z" fill="white"/>
<path d="M119.443 33.1469C117.737 33.1469 116.334 32.5987 115.236 31.5024C114.153 30.4061 113.611 29.0135 113.611 27.3247C113.611 25.6654 114.16 24.2876 115.258 23.1913C116.371 22.095 117.774 21.5469 119.465 21.5469C121.172 21.5469 122.589 22.1321 123.717 23.3024C124.844 24.458 125.364 26.0432 125.275 28.058H116.594C116.653 28.7543 116.943 29.3395 117.462 29.8135C117.982 30.2728 118.694 30.5024 119.599 30.5024C120.148 30.5024 120.63 30.3987 121.046 30.1913C121.476 29.9691 121.78 29.6654 121.958 29.2802H125.141C124.815 30.421 124.132 31.3543 123.093 32.0802C122.055 32.7913 120.838 33.1469 119.443 33.1469ZM119.376 24.0135C118.679 24.0135 118.093 24.1987 117.618 24.5691C117.158 24.9247 116.853 25.421 116.705 26.058H121.936C121.773 25.3617 121.446 24.8506 120.957 24.5247C120.482 24.1839 119.955 24.0135 119.376 24.0135Z" fill="white"/>
</svg>
